<svg xmlns="http://www.w3.org/2000/svg" xmlns:xlink="http://www.w3.org/1999/xlink" version="1.1" x="0px" y="0px" viewBox="0 0 100 125" style="enable-background:new 0 0 100 100;" xml:space="preserve"><style type="text/css">
	.st0{fill:none;stroke:#FFFFFF;stroke-width:2;stroke-miterlimit:10;}
	.st1{fill:none;stroke:#000000;stroke-miterlimit:10;}
	.st2{fill:none;stroke:#000000;stroke-width:0.75;stroke-miterlimit:10;}
	.st3{fill:#FFFFFF;}
</style><g><g><path d="M47.1342773,77.270752c1.3076172,0.3862305,2.0800781,0.3862305,2.7011719,0.3862305    c0.6347656,0,1.4980469,0,2.7910156-0.3857422c1.1962891-0.3564453,1.2392578-1.8095703,1.2392578-1.8242188V60.9169312    c-0.1360474,1.394165-0.3845825,2.8872681-0.7734375,3.6033325c-0.0263672,0.0473633-0.0595703,0.0908203-0.0996094,0.1274414    c-0.3017578,0.2802734-0.7431641,0.5107422-1.3115234,0.6850586c-0.5888672,0.1801758-1.1943359,0.2700195-1.8007813,0.2700195    c-0.6054688,0-1.2109375-0.0898438-1.7998047-0.2700195c-0.5683594-0.1743164-1.0097656-0.4047852-1.3115234-0.6850586    c-0.0400391-0.0366211-0.0732422-0.0800781-0.0996094-0.1274414c-0.388855-0.7160645-0.6373901-2.2091675-0.7734375-3.6033325    v14.5305786C45.8979492,75.5056152,45.9516602,76.9221191,47.1342773,77.270752z"/><rect x="49.1088867" y="85.6428223" width="1.4570313" height="7.3989258"/><path d="M52.6264648,41.6872559c-1.2949219-0.3857422-2.1582031-0.3857422-2.7890625-0.3857422    c-0.6210938,0-1.3935547,0-2.703125,0.3862305c-1.1953125,0.3530273-1.2382813,1.8085938-1.2382813,1.8232422v13.0430298    c0.137085-1.1500854,0.37323-2.2665405,0.6582031-3.0259399c0.0263672-0.0703125,0.0673828-0.1333008,0.1220703-0.1855469    c0.2509766-0.2402344,0.6289063-0.4453125,1.1542969-0.6264648c1.3232422-0.4575195,2.7792969-0.456543,4.1005859,0    c0.5263672,0.1816406,0.9042969,0.3867188,1.1552734,0.6264648c0.0546875,0.0522461,0.0966797,0.1157227,0.1230469,0.1860352    c0.2808228,0.7513428,0.5182495,1.888855,0.65625,3.0498047V43.5134277    C53.8637695,43.4484863,53.8071289,42.0393066,52.6264648,41.6872559z"/><path d="M46.8510742,40.7287598c1.4482422-0.4272461,2.3369141-0.4272461,2.9863281-0.4272461    c0.6533203,0,1.640625,0,3.0742188,0.4277344c0.3988037,0.1188354,0.7014771,0.3152466,0.9541016,0.5385742V36.392334h-1.7353516    c-0.2763672,0-0.5-0.2236328-0.5-0.5v-1.3535156c-0.1386719-0.0327148-0.3251953-0.0620117-0.5449219-0.0620117h-2.4960938    c-0.2451172,0-0.4238281,0.0288086-0.5449219,0.0595703v1.355957c0,0.2763672-0.2236328,0.5-0.5,0.5h-1.6484375v4.8733521    C46.1488647,41.0425415,46.4517822,40.8465576,46.8510742,40.7287598z"/><path d="M48.3735352,64.376709c0.9863281,0.3017578,2.0283203,0.3007813,3.0146484,0    c0.375-0.1147461,0.6708984-0.2553711,0.8632813-0.4091797c0.4550781-0.9599609,0.7431641-3.7836914,0.7431641-5.3754883    c0-1.5302734-0.2890625-3.4697266-0.6787109-4.5927734c-0.1142578-0.0839844-0.3271484-0.2055664-0.7109375-0.3378906    c-1.1142578-0.3852539-2.3359375-0.3852539-3.4482422,0c-0.3828125,0.1323242-0.5957031,0.2539063-0.7099609,0.3383789    c-0.390625,1.121582-0.6796875,3.0605469-0.6796875,4.5922852c0,1.5917969,0.2880859,4.4155273,0.7431641,5.3754883    C47.7026367,64.1213379,47.9985352,64.2619629,48.3735352,64.376709z"/><path d="M18.3286133,43.1975098c-0.0004883,0.0008545-0.0015259,0.0011597-0.0020752,0.0020142    c-0.3114014,0.5238647-0.6543579,1.1014404-1.0350342,1.743103c-0.0693359,0.1176758-0.1835938,0.2011719-0.3164063,0.2324219    c-2.3496094,0.5444336-5.3925781,2.3950195-5.6923828,3.0800781c-0.3583984,0.8178711-0.5966797,2.0439453-0.5966797,5.3730469    c0,3.8149414,0.4931641,4.8466797,0.4980469,4.8569336c0.0117188,0.0214844,1.4404297,2.3481445,7.0273438,3.5068359    c6.1035156,1.2661133,10.3583984-0.8701172,11.1503906-1.3110352c3.0498047-1.7001953,4.8417969-3.8598633,5.3251953-6.4194336    c0.1982422-1.0854492,0.3896484-4.8583984-1.2792969-7.8183594c-1.5996094-2.8374023-5.3105469-5.3994141-12.0205078-8.2924805    c-0.2750854,0.3924561-0.8217163,1.2820435-3.057312,5.0432739    C18.3292236,43.1950684,18.3292847,43.1963501,18.3286133,43.1975098z M15.8022461,56.1022949    c-1.2021484,0-2.1806641-0.9780273-2.1806641-2.1801758s0.9785156-2.1801758,2.1806641-2.1801758    s2.1796875,0.9780273,2.1796875,2.1801758S17.0043945,56.1022949,15.8022461,56.1022949z"/><path d="M15.168457,40.6496582c0.3574829,0.2681274,1.7172852,1.0985718,2.5568848,1.6044312    c1.1828003-1.9888916,1.8516846-3.1036377,2.2632446-3.7730103c-0.8362427-0.4968262-2.3156128-1.43396-2.7146606-1.699585    c-0.4228516,0.5947266-1.9375,2.9155273-2.4052734,3.6381836C14.9604492,40.4934082,15.0776367,40.5817871,15.168457,40.6496582z"/><path d="M40.0883789,33.9255371c-1.0410156-4.902832-3.7167969-12.2124023-7.8320313-16.6782227    c-3.3212891-3.6040039-6.9345703-5.4316406-10.7402344-5.4316406c-2.5732422,0-5.3583984,1.1606445-7.8427734,3.2675781    c-2.9863281,2.5327148-4.5644531,6.2216797-4.5644531,10.6689453c0,7.1582642,4.1548462,11.9111328,5.4874878,13.2520142    c0.4624023-0.7094727,1.0574951-1.6166992,1.4916992-2.2592163c-3.647583-3.9260254-5.0502319-8.3621216-4.2487183-13.5557861    c0.4355469-2.8217773,2.4238281-5.7285156,5.0654297-7.4052734c2.2578125-1.4326172,4.7861328-1.8442383,7.1240234-1.1547852    c5.5292969,1.6298828,9.3876953,7.3598633,11.1552734,12.1791992l0.2246094,0.6113281    c1.5751953,4.2773438,3.9560547,10.7416992,3.9560547,18.8354492c0,8.1518555-1.4970703,18.8500977-4.1074219,29.3515625    c-2.0761719,8.3535156-5.0087891,15.2592773-5.9785156,17.4350586h2.6660156    c0.4521484-0.9003906,2.0742188-4.4282227,4.7568359-13.4599609c3.2080078-10.7963867,4.2724609-19.6279297,4.9453125-27.5634766    c0.6523438-7.6845703-0.65625-13.8461914-1.5224609-17.9233398L40.0883789,33.9255371z"/><rect x="49.0893555" y="6.958252" width="1.4960938" height="26.5185547"/><path d="M15.8022461,52.7419434c-0.6513672,0-1.1806641,0.5292969-1.1806641,1.1801758s0.5292969,1.1801758,1.1806641,1.1801758    c0.6503906,0,1.1796875-0.5292969,1.1796875-1.1801758S16.4526367,52.7419434,15.8022461,52.7419434z"/><path d="M81.6734619,43.1995239c-0.0005493-0.0008545-0.0015869-0.0011597-0.0020752-0.0020142    c-0.0006714-0.0011597-0.0006104-0.0024414-0.0012817-0.0036011c-2.2355957-3.7612305-2.7822266-4.6508179-3.057312-5.0432739    c-6.7099609,2.8930664-10.4208984,5.4550781-12.0205078,8.2924805c-1.6689453,2.9599609-1.4775391,6.7329102-1.2783203,7.8212891    c0.4824219,2.5566406,2.2744141,4.7163086,5.3242188,6.4165039c0.7929688,0.440918,5.0488281,2.578125,11.1503906,1.3110352    c5.5869141-1.1586914,7.015625-3.4853516,7.0283203-3.5083008c0.0039063-0.0087891,0.4970703-1.0405273,0.4970703-4.8554688    c0-3.3291016-0.2382813-4.5551758-0.5966797-5.3725586c-0.2998047-0.6855469-3.3427734-2.5361328-5.6923828-3.0805664    c-0.1328125-0.03125-0.2470703-0.1147461-0.3164063-0.2324219C82.3278198,44.3009644,81.9848633,43.7233887,81.6734619,43.1995239    z M84.1977539,51.7419434c1.2021484,0,2.1806641,0.9780273,2.1806641,2.1801758s-0.9785156,2.1801758-2.1806641,2.1801758    s-2.1796875-0.9780273-2.1796875-2.1801758S82.9956055,51.7419434,84.1977539,51.7419434z"/><path d="M86.3266602,15.083252c-2.484375-2.1069336-5.2695313-3.2675781-7.8427734-3.2675781    c-3.8056641,0-7.4189453,1.8276367-10.7402344,5.4316406c-4.1152344,4.4658203-6.7910156,11.7753906-7.8320313,16.6782227    l-0.0361328,0.1694336c-0.8662109,4.0771484-2.1748047,10.2387695-1.5224609,17.9233398    c0.6728516,7.9355469,1.7373047,16.7670898,4.9453125,27.5634766c2.6826172,9.0317383,4.3046875,12.5595703,4.7568359,13.4599609    h2.6660156c-0.9697266-2.1757813-3.9023438-9.081543-5.9785156-17.4350586    c-2.6103516-10.5014648-4.1074219-21.199707-4.1074219-29.3515625c0-8.09375,2.3808594-14.5581055,3.9560547-18.8354492    l0.2246094-0.6113281c1.7675781-4.8193359,5.6259766-10.5493164,11.1552734-12.1791992    c2.3378906-0.6899414,4.8662109-0.2783203,7.1240234,1.1547852c2.6416016,1.6767578,4.6298828,4.5834961,5.0654297,7.4052734    c0.8015137,5.1937256-0.6010742,9.6299438-4.2488403,13.5559692c0.4343262,0.642334,1.0289307,1.5489502,1.491272,2.2581177    c1.3319702-1.3442993,5.4880371-6.1080933,5.4880371-13.2510986    C90.8911133,21.3049316,89.3129883,17.6159668,86.3266602,15.083252z"/><path d="M48.0444336,84.5959473c0.1132813,0.0239258,0.2929688,0.046875,0.5644531,0.046875h2.4570313    c0.28125,0,0.4677734-0.0292969,0.5839844-0.0595703v-0.8754883h-3.6054688V84.5959473z"/><path d="M84.1977539,55.1022949c0.6513672,0,1.1806641-0.5292969,1.1806641-1.1801758s-0.5292969-1.1801758-1.1806641-1.1801758    c-0.6503906,0-1.1796875,0.5292969-1.1796875,1.1801758S83.5473633,55.1022949,84.1977539,55.1022949z"/><path d="M52.9116211,78.229248c-1.4326172,0.4277344-2.4189453,0.4277344-3.0722656,0.4277344s-1.5419922,0-2.9882813-0.4272461    c-0.399292-0.1177368-0.7022095-0.3135986-0.9550781-0.5366821v5.0147095h7.9697266v-5.0170898    C53.6130981,77.9140015,53.3104248,78.1104126,52.9116211,78.229248z"/><path d="M80.0112305,38.4812622c0.4115601,0.6693726,1.0805054,1.7842407,2.2633057,3.7728882    c0.8395996-0.5059204,2.1995239-1.3363647,2.5570068-1.6044922c0.0859375-0.0644531,0.2060547-0.1542969,0.2998047-0.2299805    c-0.4658203-0.7197266-1.9794922-3.0395508-2.4042969-3.6391602    C82.2336426,37.1055298,80.8198853,38.0002441,80.0112305,38.4812622z"/></g></g><text x="0" y="115" fill="#000000" font-size="5px" font-weight="bold" font-family="'Helvetica Neue', Helvetica, Arial-Unicode, Arial, Sans-serif">Created by Alone forever</text><text x="0" y="120" fill="#000000" font-size="5px" font-weight="bold" font-family="'Helvetica Neue', Helvetica, Arial-Unicode, Arial, Sans-serif">from the Noun Project</text></svg>